<?xml version="1.0" encoding="UTF-8" standalone="no"?>
<!-- Created with Inkscape (http://www.inkscape.org/) -->

<svg
   xmlns:dc="http://purl.org/dc/elements/1.1/"
   xmlns:cc="http://creativecommons.org/ns#"
   xmlns:rdf="http://www.w3.org/1999/02/22-rdf-syntax-ns#"
   xmlns:svg="http://www.w3.org/2000/svg"
   xmlns="http://www.w3.org/2000/svg"
   xmlns:xlink="http://www.w3.org/1999/xlink"
   xmlns:sodipodi="http://sodipodi.sourceforge.net/DTD/sodipodi-0.dtd"
   xmlns:inkscape="http://www.inkscape.org/namespaces/inkscape"
   inkscape:export-ydpi="112.5"
   inkscape:export-xdpi="112.5"
   inkscape:export-filename="/home/bjorn/Desktop/COA spoof II.png"
   inkscape:output_extension="org.inkscape.output.svg.inkscape"
   sodipodi:docname="Arch Linux COA.svg"
   version="1.0"
   inkscape:version="0.92.4 5da689c313, 2019-01-14"
   sodipodi:version="0.32"
   id="svg2"
   height="161"
   width="400">
  <sodipodi:namedview
     id="base"
     pagecolor="#ffffff"
     bordercolor="#666666"
     borderopacity="1.0"
     gridtolerance="10000"
     guidetolerance="10"
     objecttolerance="10"
     inkscape:pageopacity="0.0"
     inkscape:pageshadow="2"
     inkscape:zoom="2"
     inkscape:cx="212.91257"
     inkscape:cy="33.768478"
     inkscape:document-units="px"
     inkscape:current-layer="layer1"
     showgrid="false"
     inkscape:window-width="1366"
     inkscape:window-height="768"
     inkscape:window-x="0"
     inkscape:window-y="32"
     inkscape:window-maximized="0" />
  <defs
     id="defs4">
    <inkscape:perspective
       sodipodi:type="inkscape:persp3d"
       inkscape:vp_x="0 : 80.5 : 1"
       inkscape:vp_y="0 : 1000 : 0"
       inkscape:vp_z="400 : 80.5 : 1"
       inkscape:persp3d-origin="200 : 53.666667 : 1"
       id="perspective409" />
    <pattern
       inkscape:collect="always"
       xlink:href="#pattern12973"
       id="pattern4626"
       patternTransform="translate(66.023437,423.07492)" />
    <pattern
       inkscape:collect="always"
       xlink:href="#Wavywhite"
       id="pattern12973"
       patternTransform="translate(-1,-1)" />
    <pattern
       inkscape:stockid="Wavy white"
       id="Wavywhite"
       height="5.1805778"
       width="30.066020"
       patternUnits="userSpaceOnUse"
       inkscape:collect="always">
      <path
         id="path6328"
         d="M 7.597,0.061 C 5.079,-0.187 2.656,0.302 -0.01,1.788 L -0.01,3.061 C 2.773,1.431 5.173,1.052 7.472,1.280 C 9.770,1.508 11.969,2.361 14.253,3.218 C 18.820,4.931 23.804,6.676 30.066,3.061 L 30.062,1.788 C 23.622,5.497 19.246,3.770 14.691,2.061 C 12.413,1.207 10.115,0.311 7.597,0.061 z "
         style="fill:white;stroke:none;" />
    </pattern>
    <linearGradient
       id="linearGradient3156">
      <stop
         id="stop3158"
         offset="0"
         style="stop-color:#82db60;stop-opacity:1;" />
      <stop
         id="stop3160"
         offset="1"
         style="stop-color:#8cc477;stop-opacity:0;" />
    </linearGradient>
    <filter
       height="2.0818511"
       y="-0.54092554"
       width="1.1931024"
       x="-0.0965512"
       id="filter4425"
       inkscape:collect="always">
      <feGaussianBlur
         id="feGaussianBlur4427"
         stdDeviation="3.9865085"
         inkscape:collect="always" />
    </filter>
    <filter
       id="filter4495"
       inkscape:collect="always">
      <feGaussianBlur
         id="feGaussianBlur4497"
         stdDeviation="4.4208227"
         inkscape:collect="always" />
    </filter>
    <linearGradient
       y2="141.41801"
       x2="170.5"
       y1="153.46938"
       x1="170.5"
       gradientUnits="userSpaceOnUse"
       id="linearGradient4499"
       xlink:href="#linearGradient3156"
       inkscape:collect="always"
       gradientTransform="translate(-1,-1)" />
    <filter
       inkscape:collect="always"
       id="filter10263">
      <feGaussianBlur
         inkscape:collect="always"
         stdDeviation="3.560664"
         id="feGaussianBlur10265" />
    </filter>
    <filter
       inkscape:collect="always"
       id="filter10543"
       x="-0.093782482"
       width="1.187565"
       y="-0.28890699"
       height="1.577814">
      <feGaussianBlur
         inkscape:collect="always"
         stdDeviation="2.4391156"
         id="feGaussianBlur10545" />
    </filter>
    <filter
       inkscape:collect="always"
       id="filter10728"
       x="-0.057401635"
       width="1.1148033"
       y="-0.29306376"
       height="1.5861275">
      <feGaussianBlur
         inkscape:collect="always"
         stdDeviation="4.7104233"
         id="feGaussianBlur10730" />
    </filter>
    <filter
       inkscape:collect="always"
       id="filter10834"
       x="-0.33324279"
       width="1.6664856"
       y="-0.22722152"
       height="1.454443">
      <feGaussianBlur
         inkscape:collect="always"
         stdDeviation="2.8421524"
         id="feGaussianBlur10836" />
    </filter>
    <filter
       inkscape:collect="always"
       id="filter10966"
       x="-0.046390056"
       width="1.0927801"
       y="-0.35021107"
       height="1.7004221">
      <feGaussianBlur
         inkscape:collect="always"
         stdDeviation="4.7562713"
         id="feGaussianBlur10968" />
    </filter>
    <filter
       inkscape:collect="always"
       id="filter11107">
      <feGaussianBlur
         inkscape:collect="always"
         stdDeviation="3.9293452"
         id="feGaussianBlur11109" />
    </filter>
    <filter
       inkscape:collect="always"
       id="filter11171"
       x="-0.42610477"
       width="1.8522095"
       y="-0.29053944"
       height="1.5810789">
      <feGaussianBlur
         inkscape:collect="always"
         stdDeviation="3.6341512"
         id="feGaussianBlur11173" />
    </filter>
    <filter
       inkscape:collect="always"
       id="filter11735"
       x="-0.24407305"
       width="1.4881461"
       y="-0.23793288"
       height="1.4758658">
      <feGaussianBlur
         inkscape:collect="always"
         stdDeviation="7.3479838"
         id="feGaussianBlur11737" />
    </filter>
    <filter
       inkscape:collect="always"
       id="filter12252"
       x="-0.34201426"
       width="1.6840285"
       y="-0.33281008"
       height="1.6656202">
      <feGaussianBlur
         inkscape:collect="always"
         stdDeviation="4.9054819"
         id="feGaussianBlur12254" />
    </filter>
    <filter
       inkscape:collect="always"
       id="filter12873"
       x="-0.26936156"
       width="1.5387231"
       y="-0.52630811"
       height="2.0526162">
      <feGaussianBlur
         inkscape:collect="always"
         stdDeviation="3.8742004"
         id="feGaussianBlur12875" />
    </filter>
    <filter
       inkscape:collect="always"
       id="filter12877"
       x="-0.12922848"
       width="1.258457"
       y="-0.40426432"
       height="1.8085286">
      <feGaussianBlur
         inkscape:collect="always"
         stdDeviation="3.8742004"
         id="feGaussianBlur12879" />
    </filter>
    <filter
       inkscape:collect="always"
       id="filter12881"
       x="-0.16220223"
       width="1.3244045"
       y="-0.54873359"
       height="2.0974672">
      <feGaussianBlur
         inkscape:collect="always"
         stdDeviation="3.8742004"
         id="feGaussianBlur12883" />
    </filter>
    <filter
       inkscape:collect="always"
       id="filter12961">
      <feGaussianBlur
         inkscape:collect="always"
         stdDeviation="1.44375"
         id="feGaussianBlur12963" />
    </filter>
    <linearGradient
       inkscape:collect="always"
       xlink:href="#linearGradient3156"
       id="linearGradient4409"
       gradientUnits="userSpaceOnUse"
       gradientTransform="translate(-1,-1)"
       x1="170.5"
       y1="153.46938"
       x2="170.5"
       y2="141.41801" />
    <linearGradient
       inkscape:collect="always"
       xlink:href="#linearGradient3156"
       id="linearGradient4767"
       gradientUnits="userSpaceOnUse"
       gradientTransform="translate(66.023437,423.07492)"
       x1="170.5"
       y1="153.46938"
       x2="170.5"
       y2="141.41801" />
  </defs>
  <metadata
     id="metadata7">
    <rdf:RDF>
      <cc:Work
         rdf:about="">
        <dc:format>image/svg+xml</dc:format>
        <dc:type
           rdf:resource="http://purl.org/dc/dcmitype/StillImage" />
        <dc:title></dc:title>
      </cc:Work>
    </rdf:RDF>
  </metadata>
  <g
     id="layer1"
     inkscape:groupmode="layer"
     inkscape:label="Layer 1">
    <path
       style="fill:#ccd2d9;fill-opacity:1;stroke:none"
       d="M 14.46875,2.21875 C 7.3050476,2.21875 1.5625001,8.0237849 1.5625,15.1875 L 1.5625,146.625 C 1.5625,148.742 2.0753874,150.73695 2.96875,152.5 L 396.6875,152.5 C 397.58086,150.73695 398.09375,148.74201 398.09375,146.625 L 398.09375,15.1875 C 398.09375,8.0237956 392.31995,2.2187499 385.15625,2.21875 L 14.46875,2.21875 z"
       id="rect4501" />
    <path
       sodipodi:nodetypes="csssssssssssssssssssssssssssssssssssssss"
       id="path4429"
       d="M 386.5,84.500001 C 381.75049,91.894907 365.94689,91.102615 360.5,98.000001 C 357.43362,101.88295 354.51312,109.46874 356.5,114 C 358.00951,117.44258 363.77137,119.5232 367.5,120 C 371.18082,120.47068 376.19605,115.31065 379.5,117 C 381.65764,118.10322 382.75096,122.08971 382.5,124.5 C 382.21995,127.18962 379.80543,130.58668 377.5,132 C 373.12201,134.68388 365.18878,131.90587 360.5,134 C 357.39489,135.38682 355.16779,140.26302 352,141.5 C 332.57369,149.08574 303.35478,143.05674 282.5,143 C 276.94799,142.9849 268.83669,145.22606 264,142.5 C 261.82516,141.27421 259.68517,137.98962 259.5,135.5 C 259.25599,132.21931 261.81447,127.95885 264,125.5 C 267.48638,121.57761 275.24071,120.16166 279,116.5 C 281.80201,113.77076 286.63361,109.35986 286,105.5 C 285.03235,99.605202 276.41993,93.799666 270.5,93.000001 C 266.77188,92.496405 262.43585,99.53213 259,98.000001 C 252.93491,95.295432 250.70562,83.513416 252,77.000001 C 252.58034,74.079692 255.7444,70.627676 258.5,69.500001 C 261.98172,68.075177 267.76632,72.422448 271,70.500001 C 273.53973,68.990112 274.64108,64.432777 275,61.500001 C 275.31455,58.929775 274.27918,55.469388 273.5,53.000001 C 272.75285,50.632139 272.09429,46.833776 270,45.500001 C 267.21655,43.727323 260.35738,48.507912 259,45.500001 C 257.60119,42.400271 263.74483,38.993495 266.5,37.000001 C 268.35102,35.660702 271.28019,34.540793 273.5,34.000001 C 279.49121,32.540415 287.85972,31.932619 294,32.500001 C 302.80359,33.313481 314.21387,43.083022 322.5,40.000001 C 328.46614,37.780178 328.55689,24.780785 334.5,22.500001 C 338.67784,20.896673 345.15922,23.703607 349,26.000001 C 352.28232,27.962494 354.76723,32.824753 357.5,35.500001 C 359.47645,37.434849 362.99789,39.177573 364.5,41.500001 C 365.94353,43.731864 366.98267,47.342051 367,50.000001 C 367.0254,53.894145 365.30161,59.047582 363.5,62.500001 C 361.97172,65.428631 354.38585,68.461718 356.5,71.000001 C 360.45346,75.746595 369.06642,63.938735 374.5,61.000001 C 377.33285,59.467863 380.97784,54.886865 384,56.000001 C 386.27398,56.837565 386.54173,61.120402 387,63.500001 C 387.62405,66.740457 387.08242,71.20103 387,74.500001 C 386.92498,77.502812 388.12325,81.972636 386.5,84.500001 z"
       style="fill:#a9afbb;fill-opacity:1;fill-rule:evenodd;stroke:none;stroke-width:1px;stroke-linecap:butt;stroke-linejoin:miter;stroke-opacity:1;filter:url(#filter4495)"
       transform="matrix(1.1805312,0,0,1.1135464,-56.929825,-17.501153)" />
    <path
       style="fill:#ddc2c9;fill-opacity:1;fill-rule:evenodd;stroke:none;stroke-width:1px;stroke-linecap:butt;stroke-linejoin:miter;stroke-opacity:1;filter:url(#filter10263)"
       d="M 7.5753517,31.806621 C 6.2718291,31.798531 5.2941017,32.121251 5.2941017,33.025371 C 5.2941017,35.853801 5.2941018,38.665691 5.2941017,41.494121 C 5.2941017,46.815451 5.8984274,52.608061 4.6066017,57.775371 C 3.8949597,60.621941 4.2316019,63.970041 4.2316017,66.962871 C 4.2316017,68.576921 3.792657,75.558081 6.7316017,72.619121 C 8.549508,70.801221 9.3199664,68.593251 10.950352,66.962871 C 12.682476,65.230741 14.218869,62.740941 16.981602,63.431621 C 19.147634,63.973131 21.200352,65.848701 21.200352,68.369121 C 21.200352,69.238441 21.786508,74.304511 21.200352,74.744121 C 18.238275,76.965681 16.859755,78.275381 13.450352,78.275371 C 10.589605,78.275371 6.3725884,78.948791 5.6691017,79.337871 C 4.7909153,81.533331 4.8710405,81.097561 5.2941017,83.212871 C 5.6145417,84.815071 4.9672982,93.479821 6.0128517,94.525371 C 7.9105848,96.423111 10.715878,98.658151 13.075352,99.837871 C 15.678841,101.13962 18.340743,102.45495 20.856602,103.71287 C 24.452567,105.51085 27.081883,106.93023 26.169102,111.49412 C 25.495537,114.86195 18.693157,115.15087 15.919102,112.93162 C 14.409159,111.72366 7.7628517,106.60509 7.7628517,109.36912 C 7.7628517,112.69473 8.1378518,115.54961 8.1378517,118.93162 C 8.1378517,123.32124 5.0602278,127.40038 6.0128517,127.40037 C 10.697205,127.40037 9.182404,125.29998 12.731602,123.52537 C 15.851301,121.96552 17.916415,122.11911 21.575352,122.11912 C 26.726699,122.11912 22.536919,126.09506 20.856602,127.77537 C 18.816345,129.81563 13.40994,131.90131 17.325352,134.83787 C 20.693483,137.36397 22.356298,136.61913 26.512852,136.61912 C 31.477649,136.61912 36.34027,134.83787 41.356602,134.83787 C 47.020517,134.83787 52.977683,135.37968 58.325352,133.77537 C 59.503863,133.42182 60.689342,133.10195 61.856602,132.71287 C 63.885607,132.03653 68.356924,129.43033 68.950352,127.05662 C 70.509943,120.81826 74.013995,126.79967 76.731602,128.83787 C 79.229423,130.71124 81.352684,133.00681 83.794102,134.83787 C 87.046242,137.27697 91.26553,139.08787 95.450352,139.08787 C 99.367388,139.08787 103.71416,139.46634 107.4816,138.71287 C 108.77801,138.45359 116.13343,137.66396 115.6066,135.55662 C 115.03207,133.25852 112.4191,131.21575 112.4191,128.83787 C 112.4191,124.61647 115.35054,124.85023 118.07535,122.80662 C 120.49539,120.9916 130.36587,116.45703 129.0441,121.74412 C 128.3428,124.54929 126.52776,127.52253 127.2941,130.58787 C 128.3274,134.72106 136.834,134.11911 141.07535,134.11912 C 141.81115,134.11912 153.65845,135.10986 154.13785,132.71287 C 154.76361,129.58407 155.47483,126.33371 156.26285,123.18162 C 157.16236,119.58355 160.74854,119.85774 164.0441,120.68162 C 167.14892,121.45783 168.72428,124.24412 172.1691,124.24412 C 174.97834,124.24412 176.06506,123.47281 176.76285,120.68162 C 177.80225,116.52404 179.6066,113.33305 179.6066,109.02537 C 179.6066,105.86662 180.06652,103.5696 180.6691,100.55662 C 181.42038,96.800211 181.60686,93.149591 182.7941,89.587871 C 184.47976,84.530881 186.32535,78.971021 186.32535,73.681621 C 186.32535,69.996471 186.43855,65.986491 188.07535,62.712871 C 189.95245,58.958671 188.23459,55.235091 189.51285,51.400371 C 190.47582,48.511451 194.17788,45.716681 193.38785,42.556621 C 192.44836,38.798651 190.77322,35.277951 187.38785,34.431621 C 183.00883,33.336861 175.61354,33.398621 171.4816,34.431621 C 165.61591,35.898041 158.84275,35.837871 152.38785,35.837871 C 145.43463,35.837871 138.46607,35.837871 131.51285,35.837871 C 117.25286,35.837871 102.99159,35.837871 88.731602,35.837871 C 80.599874,35.837871 72.488329,35.837871 64.356602,35.837871 C 58.481553,35.837871 48.635863,36.954561 42.794102,35.494121 C 39.190147,34.593131 34.406008,33.369121 30.762852,33.369121 C 25.560624,33.369121 19.176909,34.285141 14.137852,33.025371 C 12.867102,32.707681 9.7478894,31.820101 7.5753517,31.806621 z M 150.6066,86.400371 C 153.42015,86.400371 153.45035,89.724031 153.45035,92.056621 C 153.45035,94.683661 155.57535,96.074411 155.57535,98.775371 C 155.57535,101.40846 154.94202,103.62744 153.07535,105.49412 C 151.41584,107.15362 150.33204,109.0438 148.4816,110.43162 C 146.65092,111.80462 142.79378,108.99396 141.4191,108.30662 C 139.80638,107.50026 140.3566,104.17386 140.3566,102.65037 C 140.3566,100.9322 141.40344,98.837941 142.13785,97.369121 C 143.00402,95.636761 142.82535,94.053511 142.82535,92.056621 C 142.82535,90.439101 142.7566,91.126941 144.26285,89.244121 C 146.51495,89.807141 148.2852,86.400371 150.6066,86.400371 z M 63.512852,112.11912 C 65.171314,112.06819 67.614048,113.88153 67.887852,114.33787 C 67.887851,112.44858 68.231602,118.10482 68.231602,119.99412 C 68.2316,122.30713 68.732964,123.52537 66.106602,123.52537 C 63.523158,123.52538 63.01192,119.95914 62.575352,118.21287 C 62.082979,116.24337 61.418976,114.55687 62.231602,112.93162 C 62.503666,112.3875 62.960031,112.1361 63.512852,112.11912 z"
       id="path9801"
       transform="matrix(1.5037558,0,0,1.2765828,-8.748468,-35.252969)" />
    <path
       style="fill:#ffffff;fill-opacity:0.6781116;fill-rule:evenodd;stroke:none;stroke-width:1px;stroke-linecap:butt;stroke-linejoin:miter;stroke-opacity:1;filter:url(#filter12881)"
       d="M -0.93250292,132.90603 C -1.8724689,124.76364 15.5939,129.17348 24.42105,126.96669 C 31.263916,125.25597 38.85177,125.28054 45.42105,123.96669 C 53.26365,122.39817 58.60094,130.6069 55.42105,136.96669 C 53.60014,140.60851 34.459632,137.57441 31.42105,136.96669 C 24.423555,135.56719 15.103552,143.02546 9.006836,139.9771 C 5.3118991,138.12963 2.9290191,137.08347 -0.93250292,132.90603 z"
       id="path12603"
       sodipodi:nodetypes="csssssc" />
    <path
       style="fill:url(#linearGradient4499);fill-opacity:1"
       d="M 398.09375,135.96875 L 1.5625,136.0625 L 1.5625,146.625 C 1.5625,153.7887 7.30505,159.5625 14.46875,159.5625 L 385.15625,159.5625 C 392.31996,159.5625 398.09375,153.78871 398.09375,146.625 L 398.09375,135.96875 z"
       id="rect3153" />
    <path
       style="fill:#ffffff;fill-opacity:0.6781116;fill-rule:evenodd;stroke:none;stroke-width:1px;stroke-linecap:butt;stroke-linejoin:miter;stroke-opacity:1;filter:url(#filter12877)"
       d="M 1.9565841,113.6842 C -3.7388889,110.93728 2.6687381,105.91896 4.4210501,103.96669 C 6.4281581,101.73055 18.529144,97.189666 23.42105,95.966686 C 31.7015,93.896576 36.47296,91.966686 46.42105,91.966686 C 53.76275,91.966686 62.14435,97.828336 68.42105,100.96669 C 76.49132,105.00182 67.064,112.2381 63.42105,112.96669 C 56.57577,114.33574 49.54625,114.96669 42.42105,114.96669 C 35.576372,114.96669 30.704142,111.53746 24.42105,109.96669 C 17.110083,108.13895 8.0752921,116.63526 1.9565841,113.6842 z"
       id="path12605"
       sodipodi:nodetypes="czssssssz" />
    <path
       style="fill:#aabdc5;fill-opacity:1;fill-rule:evenodd;stroke:none;stroke-width:1px;stroke-linecap:butt;stroke-linejoin:miter;stroke-opacity:1;filter:url(#filter11107)"
       d="M 75.65625,2.21875 C 74.951914,3.1800189 73.935945,4.0160137 72,4.5 C 69.20452,5.1988701 69.204728,5.68109 68.5,8.5 C 71.160838,10.63697 76.071461,12.77142 80.5,11 C 85.193879,9.12245 89.719321,8.19517 94.5,7 C 97.433175,6.2667096 102.09917,9.5 105.5,9.5 C 110.48231,9.5 114.82647,11 119.5,11 C 123.18454,11 127.18478,11.5 131,11.5 C 136.08451,11.5 140.80335,11.12134 145.5,13 C 148.80176,14.32071 153.3574,15.78519 151.5,19.5 C 150.30477,21.890459 147.04818,21.30727 146,25.5 C 145.17813,28.787479 146.89673,32.47103 149.5,29 C 152.01279,25.649609 150.13065,22.57387 155.5,21.5 C 159.78459,20.643079 161.66178,24.23236 165.5,25 C 168.67504,25.635009 173.37833,26.01334 172.5,22.5 C 171.92547,20.201899 163.29089,20 161.5,20 C 157.95613,19.999999 156,18.53527 156,15 C 156,14.233139 162.73855,12.69036 163.5,12.5 C 166.72918,11.6927 170.08795,10.5 173.5,10.5 C 178.03594,10.5 182.41551,11 187,11 C 191.46587,11 185.65677,18.34323 185,19 C 180.60418,23.395819 184.93119,21.9828 189,23 C 193.16306,24.040759 199.62509,23 204,23 C 207.87844,22.999999 211,23.27205 211,19 C 211,14.783489 211.88306,14.5 216,14.5 C 219.44986,14.5 222.16824,12.44234 224,10 C 225.59405,7.8745996 227.36979,5.5 224,5.5 C 225.80278,3.0963001 217.96969,5.45687 215,5 C 208.94189,4.0679838 204.13651,3.1308036 200.0625,2.21875 L 75.65625,2.21875 z M 255.46875,33.71875 C 252.996,33.792661 250.78406,34.29565 250.5,36 C 249.82854,40.028731 251,43.68529 251,47.5 C 251,53.198111 248.26998,63.73002 244.5,67.5 C 240.26549,71.734511 232.37676,69.33098 228.5,74.5 C 224.86406,79.347921 222.08069,84.72575 218.5,89.5 C 215.13237,93.990171 213.56238,99.68714 215.5,105.5 C 217.65057,111.9517 219.01419,117.61135 224.5,122 C 229.50946,126.00757 227.72945,129 235,129 C 241.69733,129 245.7619,123.05238 253,124.5 C 255.34682,124.96936 264.9193,127.83859 266,130 C 267.61351,133.22703 267.73438,136.17192 268.5,140 C 269.80447,146.52234 272.48397,148.16934 279.5,147 C 284.79711,146.11715 291.9077,147.44423 296.5,144 C 300.88687,140.70984 302,136.52614 302,131 C 302,126.74716 305.258,120.4968 309,119 C 312.42973,117.62811 317.21462,117.78538 320,115 C 323.56168,111.43832 324.76281,108.97438 327,104.5 C 328.705,101.09 329.88037,96.73926 331.5,93.5 C 331.83333,92.833331 332.16667,92.16667 332.5,91.5 C 334.36457,87.770861 334.61357,83.77286 336.5,80 C 337.8696,77.260801 338.99261,73.67652 341,71 C 343.08621,68.218381 345.19468,65.22127 346,62 C 346.16667,61.333331 346.28269,60.65192 346.5,60 C 347.96964,55.591071 350,52.68068 350,48 C 350,43.015371 345.38882,39.41661 341.5,36.5 C 338.36713,34.150351 332.80051,34.1399 328.5,35 C 324.38492,35.823021 319.21081,35.14459 315.5,37 C 310.87678,39.311611 307.60175,40.5 302,40.5 C 296.27795,40.500001 293.78639,40.4127 292.96875,40.28125 C 292.55766,41.380961 288.29549,42.62 285,43.5 C 284.1352,40.473211 283.54209,39.02105 280.5,37.5 C 275.08937,34.794681 268.37933,34 262,34 C 260.67507,34.000001 257.9415,33.64484 255.46875,33.71875 z M 292.96875,40.28125 C 293.00489,40.184561 293.02694,40.09429 293,40 C 292.59246,40.101881 292.46626,40.20047 292.96875,40.28125 z"
       id="path10970" />
    <path
       style="fill:#c0d4c3;fill-opacity:1;fill-rule:evenodd;stroke:none;stroke-width:1px;stroke-linecap:butt;stroke-linejoin:miter;stroke-opacity:1;filter:url(#filter10966)"
       d="M 223.4375,2.21875 C 221.45899,2.3633644 219.49469,2.6010638 217.5,3 C 212.80377,3.9392502 210.3746,6.7247597 215,9.5 C 218.88421,11.83053 210.71914,13.82021 210,14 C 207.53795,14.61551 203.38011,14.5 201,14.5 C 196.34658,14.5 192.34624,16.67312 188,14.5 C 185.90373,13.45187 181.84252,13 179.5,13 C 177.589,13.3185 176.58647,13.454625 176.5,13.5 C 173.69548,14.0609 170.66909,11.16181 168.5,15.5 C 166.1492,20.201589 164.65413,21.63835 160,23.5 C 155.21456,25.414179 153.45262,24.18953 152,30 C 151.01397,33.944109 161.24755,32.37622 163,31.5 C 163.66667,31.166671 164.33333,30.83333 165,30.5 C 167.32546,29.337269 173.93099,29 176.5,29 C 183.21033,28.999999 189.90685,30 196.5,30 C 198.51976,29.999999 199.55053,24.39894 200.5,22.5 C 202.22153,19.056939 210.00627,16 213.5,16 C 217.23394,15.999999 220.80475,17.76095 224.5,18.5 C 229.72361,19.544719 235.28988,18.21984 238.5,22.5 C 241.86079,26.981049 247.50754,31.49246 253.5,25.5 C 256.53157,22.468429 266,24.98839 266,29.5 C 266,35.731879 271.1399,34.21502 276,33 C 281.3783,31.655431 285.72441,30.5 291.5,30.5 C 295.59043,30.499999 299.91946,30.29027 303.5,28.5 C 309.96903,25.265479 309.60186,27.39813 313.5,23.5 C 314.77077,22.229229 322.96992,23.5 325,23.5 C 326.65386,23.499999 332.31586,28.65793 334,29.5 C 337.51411,31.257049 343.03479,29.5087 347,30.5 C 351.0807,31.520179 357.43567,30.5 361.5,30.5 C 365.96057,30.499999 371.06421,27.5 376,27.5 C 379.9237,27.499999 383.57888,24.01972 387.5,25 C 390.68387,25.795969 393.51048,26.25262 396.5,27 C 398.97046,27.617619 396.9878,22.95121 396.5,21 C 395.85312,18.412517 397.43357,15.70999 397.875,12.84375 C 397.49358,10.731264 396.61182,8.8079572 395.34375,7.1875 C 394.55916,6.9608932 393.62711,6.781779 392.5,6.5 C 388.71281,5.5532002 385.91365,4.84772 382,5.5 C 378.2271,6.1288202 374.5861,6.5 370.5,6.5 C 367.16667,6.5000002 363.83333,6.5 360.5,6.5 C 356.7952,6.5000002 352.71917,7.10959 349.5,5.5 C 346.22875,3.8643746 343.10777,2.8325004 339.8125,2.21875 L 223.4375,2.21875 z"
       id="path10840" />
    <flowRoot
       transform="matrix(2.9028955,0,0,2.2873939,-527.67377,-211.64381)"
       style="font-style:normal;font-weight:normal;line-height:0.01%;font-family:'Bitstream Vera Sans';fill:#d5d3e5;fill-opacity:1;stroke:#c6c6ed;stroke-width:0.36686808;stroke-linecap:butt;stroke-linejoin:miter;stroke-miterlimit:4;stroke-dasharray:none;stroke-opacity:1"
       id="flowRoot2383"
       xml:space="preserve"><flowRegion
         id="flowRegion2385"><rect
           style="fill:#d5d3e5;fill-opacity:1;stroke:#c6c6ed;stroke-width:0.36686808;stroke-miterlimit:4;stroke-dasharray:none;stroke-opacity:1"
           y="28.142857"
           x="236.42857"
           height="160.03844"
           width="91.802368"
           id="rect2387" /></flowRegion><flowPara
         style="font-style:italic;font-variant:normal;font-weight:normal;font-stretch:normal;font-size:144px;line-height:1.25;font-family:Ubuntu-Title;-inkscape-font-specification:'Ubuntu-Title Italic';fill:#d5d3e5;fill-opacity:1;stroke:#c6c6ed;stroke-width:0.36686808;stroke-miterlimit:4;stroke-dasharray:none;stroke-opacity:1"
         id="flowPara2389">U</flowPara></flowRoot>    <path
       style="fill:#c0d4c3;fill-opacity:1;fill-rule:evenodd;stroke:none;stroke-width:1px;stroke-linecap:butt;stroke-linejoin:miter;stroke-opacity:1;filter:url(#filter10966)"
       d="M 223.4375,2.21875 C 221.45899,2.3633644 219.49469,2.6010638 217.5,3 C 212.80377,3.9392502 210.3746,6.7247597 215,9.5 C 218.88421,11.83053 210.71914,13.82021 210,14 C 207.53795,14.61551 203.38011,14.5 201,14.5 C 196.34658,14.5 192.34624,16.67312 188,14.5 C 185.90373,13.45187 181.84252,13 179.5,13 C 177.589,13.3185 176.58647,13.454625 176.5,13.5 C 173.69548,14.0609 170.66909,11.16181 168.5,15.5 C 166.1492,20.201589 164.65413,21.63835 160,23.5 C 155.21456,25.414179 153.45262,24.18953 152,30 C 151.01397,33.944109 161.24755,32.37622 163,31.5 C 163.66667,31.166671 164.33333,30.83333 165,30.5 C 167.32546,29.337269 173.93099,29 176.5,29 C 183.21033,28.999999 189.90685,30 196.5,30 C 198.51976,29.999999 199.55053,24.39894 200.5,22.5 C 202.22153,19.056939 210.00627,16 213.5,16 C 217.23394,15.999999 220.80475,17.76095 224.5,18.5 C 229.72361,19.544719 235.28988,18.21984 238.5,22.5 C 241.86079,26.981049 247.50754,31.49246 253.5,25.5 C 256.53157,22.468429 266,24.98839 266,29.5 C 266,35.731879 271.1399,34.21502 276,33 C 279.07072,32.232324 281.80032,31.527023 284.65625,31.0625 L 284.65625,2.21875 L 223.4375,2.21875 z"
       id="path12259" />
    <path
       style="font-size:40px;font-style:normal;font-weight:normal;fill:#d6d4e7;fill-opacity:1;stroke:none;stroke-width:1px;stroke-linecap:butt;stroke-linejoin:miter;stroke-opacity:1;filter:url(#filter4425);font-family:Bitstream Vera Sans"
       d="M 190.1875,141.8125 C 199.55259,149.78776 210.68647,155.70063 223.5625,159.5625 L 305.125,159.5625 C 307.37508,158.94811 309.61168,158.28087 311.84375,157.5625 C 324.87027,153.43931 336.82481,148.179 347.75,141.8125 L 190.1875,141.8125 z"
       id="flowRoot3191" />
    <path
       style="fill:#c0d4c3;fill-opacity:1;fill-rule:evenodd;stroke:none;stroke-width:1px;stroke-linecap:butt;stroke-linejoin:miter;stroke-opacity:1;filter:url(#filter10728)"
       d="M 14.46875,2.21875 C 7.3050476,2.21875 1.5625001,8.0237849 1.5625,15.1875 L 1.5625,28.65625 C 1.637679,29.15912 1.7352501,29.691 1.875,30.25 C 5.0798245,43.069299 16.090881,37.16933 29.4375,34.5 C 39.475821,32.492341 50.003704,35.06175 59.84375,33.09375 C 65.136502,32.035201 69.958446,28.79945 75.40625,27.4375 C 80.59416,26.140519 83.17495,28.14397 84.59375,22.46875 C 86.015982,16.779819 87.309702,17.65905 90.96875,14 C 91.969136,12.99961 94.205849,12.7727 94.0625,11.90625 C 99.90176,12.13919 103.38457,13.28125 109.34375,13.28125 C 117.44673,13.28125 126.13014,13.17445 124.90625,12.5625 C 122.59021,11.40448 117.00628,8.02624 115,7.625 C 108.7127,6.3675396 102.63719,5.5 95.90625,5.5 C 91.039609,5.5000001 87.468366,4.09375 82.46875,4.09375 C 78.454885,4.0937501 74.706738,4.21702 74.59375,4.3125 C 74.273369,4.2399002 69.349692,3.45461 69.03125,3.375 C 67.435291,2.9760082 65.892223,2.5949411 64.375,2.21875 L 14.46875,2.21875 z M 142.59375,2.21875 C 138.03472,2.840463 133.61421,3.7043672 135.5,6.21875 C 134.51098,11.163861 133.86338,12.5625 139.03125,12.5625 C 141.74529,12.5625 145.87409,11.93319 147.1875,12.5625 C 148.50091,13.19181 146.91028,15.08282 146.125,15.9375 C 139.87301,19.688689 137.45338,17.55932 130.5625,18.9375 C 129.73891,19.102209 115.77428,22.85589 122.0625,26 C 124.72335,27.330429 130.2029,29.5625 134.09375,29.5625 C 138.57298,29.562499 146.5358,28.34602 150.34375,30.25 C 155.38366,32.769959 160.83057,32.37501 166.625,32.375 C 170.16143,32.375001 182.27548,34.4184 185,32.375 C 185.72317,31.832621 196.81168,24.85897 194.90625,23.90625 C 188.61528,20.760769 177.33006,22.58005 172.28125,17.53125 C 169.02164,14.271629 164.98617,8.34375 160.25,8.34375 C 159.33323,8.3437496 158.41676,8.34375 157.5,8.34375 C 157.46024,7.9106296 157.4375,7.43252 157.4375,6.90625 C 157.4375,4.7142331 157.13895,3.2107584 156.5625,2.21875 L 142.59375,2.21875 z"
       id="path10671" />
    <path
       style="fill:#ffffff;fill-opacity:0.52380958;fill-rule:evenodd;stroke:none;stroke-width:1px;stroke-linecap:butt;stroke-linejoin:miter;stroke-opacity:1;filter:url(#filter10834)"
       d="M 155.56349,86.753788 C 154.46912,83.780748 148.36165,74.16995 142.12846,72.611653 C 134.64961,70.741941 135.7645,82.468283 135.7645,86.753788 C 135.7645,93.26247 137.0155,97.061205 142.12846,100.89592 C 146.10326,103.87702 154.50681,102.29424 155.56349,98.067497 C 156.51444,94.263705 156.23027,90.754478 155.56349,86.753788 z"
       id="path10267"
       transform="matrix(1,0,0,0.7668213,-1.5,27.884788)" />
    <path
       style="fill:#ffffff;fill-opacity:0.6781116;fill-rule:evenodd;stroke:none;stroke-width:1px;stroke-linecap:butt;stroke-linejoin:miter;stroke-opacity:1;filter:url(#filter12873)"
       d="M 111.42105,110.96669 C 107.1462,109.89798 86.50314,108.83638 82.42105,114.96669 C 74.65338,126.63185 94.43634,125.56975 96.42105,125.96669 C 104.23146,127.52877 108.40213,129.98561 114.42105,123.96669 C 116.94427,121.44347 112.07821,112.06196 111.42105,110.96669 z"
       id="path12607"
       sodipodi:nodetypes="csssc" />
    <path
       style="fill:#ffffff;fill-opacity:0.35497837;fill-rule:evenodd;stroke:none;stroke-width:1px;stroke-linecap:butt;stroke-linejoin:miter;stroke-opacity:1;filter:url(#filter10543)"
       d="M 18.79899,109.79542 C 18.757424,108.84666 27.847119,108.29749 32.941125,106.25988 C 39.014192,103.83066 47.582359,105.55278 54.154329,105.55278 C 61.630616,105.55278 67.903376,106.67218 73.953319,111.20963 C 83.091107,118.06297 79.581016,118.7108 71.124891,120.40202 C 65.537142,121.51957 62.199201,123.34055 56.982756,124.64466 C 50.420821,126.28514 45.207105,124.2982 40.012193,120.40202 C 34.848355,116.52914 27.96126,118.78141 22.422912,117.39682 C 16.393413,115.88944 18.629807,114.5002 18.003495,111.38641 C 16.117877,110.91501 16.913372,110.26682 18.79899,109.79542 z"
       id="path10401"
       sodipodi:nodetypes="cssssssscc" />
    <flowRoot
       xml:space="preserve"
       id="flowRoot9785"
       style="font-style:normal;font-weight:normal;line-height:0.01%;font-family:'Bitstream Vera Sans';fill:#000000;fill-opacity:1;stroke:none;stroke-width:1px;stroke-linecap:butt;stroke-linejoin:miter;stroke-opacity:1"><flowRegion
         id="flowRegion9787"><rect
           id="rect9789"
           width="133.64319"
           height="11.313708"
           x="46.669048"
           y="141.37779" /></flowRegion><flowPara
         id="flowPara9791"
         style="font-size:11px;line-height:1.25">http://www.ubuntu.com/getubuntu/download</flowPara></flowRoot>    <path
       transform="matrix(0.7313018,0,0,0.5149114,52.963882,83.12593)"
       id="path10768"
       d="M 155.56349,86.753788 C 154.46912,83.780748 148.36165,74.16995 142.12846,72.611653 C 134.64961,70.741941 135.7645,82.468283 135.7645,86.753788 C 135.7645,93.26247 137.0155,97.061205 142.12846,100.89592 C 146.10326,103.87702 154.50681,102.29424 155.56349,98.067497 C 156.51444,94.263705 156.23027,90.754478 155.56349,86.753788 z"
       style="fill:#ffffff;fill-opacity:0.53679654;fill-rule:evenodd;stroke:none;stroke-width:1px;stroke-linecap:butt;stroke-linejoin:miter;stroke-opacity:1;filter:url(#filter11171)" />
    <path
       style="fill:#ffffff;fill-opacity:0.70980392;fill-rule:evenodd;stroke:none;stroke-width:1px;stroke-linecap:butt;stroke-linejoin:miter;stroke-opacity:1;filter:url(#filter11735)"
       d="M 211.75,89.28125 C 207.6098,89.337559 199.81249,89.83177 199.8125,94.21875 C 199.81249,97.295079 200.25056,104.98367 199.8125,105.53125 C 199.81249,106.99445 200.246,110.89093 199.8125,112.625 C 199.01849,115.80098 195.43721,120.56134 196.28125,123.9375 C 197.65936,129.45 198.44894,134.7333 199.8125,140.1875 C 201.13826,145.49056 200.59406,151.06373 201.9375,156.4375 C 202.27732,157.79677 202.76395,158.8098 203.375,159.5625 L 207.03125,159.5625 C 207.22332,156.75381 206.90625,150.70732 206.90625,147.25 C 206.90624,143.24306 206.90625,139.25694 206.90625,135.25 C 206.90624,131.93729 214.70256,130.12725 213.25,135.9375 C 212.33407,139.60117 211.87864,143.48177 211.125,147.25 C 210.4162,150.79395 211.26945,154.5472 210.4375,157.875 C 209.35159,162.21859 218.13652,155.88321 218.90625,154.34375 C 220.45036,151.2555 219.625,146.42718 219.625,143.03125 C 219.62499,138.24861 217.64322,135.79428 221.03125,132.40625 C 226.04447,127.39302 225.28125,137.4145 225.28125,140.1875 C 225.28125,144.14987 223.875,147.20817 223.875,151.5 C 223.87499,156.98547 225.50736,159.1682 229.53125,157.15625 C 230.25736,156.79318 229.53125,146.89528 229.53125,145.84375 C 229.53124,141.34648 229.09175,137.80449 228.09375,133.8125 C 226.96776,129.30855 232.91472,133.88606 233.75,138.0625 C 234.447,141.54754 234.46875,144.99714 234.46875,148.6875 C 234.46874,153.7267 233.56207,156.34353 238,158.5625 C 243.20697,161.16597 242.96875,156.92126 242.96875,152.90625 C 242.96874,149.24547 242.25,146.1576 242.25,142.3125 C 242.24999,136.52587 243.63116,135.56558 248.625,138.0625 C 250.55083,139.02541 250.03125,147.32457 250.03125,149.375 C 250.03124,151.26118 250.03125,155.48776 250.03125,159.5625 L 263.03125,159.5625 C 264.80416,153.39436 263.46875,145.28428 263.46875,138.78125 C 263.46874,133.60117 261.80218,127.16172 259.9375,122.5 C 258.21015,118.18165 257.09374,115.48426 257.09375,110.5 C 257.09374,107.94187 257.80444,104.63066 258.78125,101.875 C 256.3467,104.46835 252.89696,106.96875 250.03125,106.96875 C 246.39193,106.96875 240.16757,108.47149 238.71875,104.125 C 237.02852,99.05434 236.52502,92.98281 230.21875,91.40625 C 224.9512,90.089369 219.09174,89.28126 213.25,89.28125 C 212.84022,89.281249 212.34146,89.27321 211.75,89.28125 z M 258.78125,101.875 C 259.89884,100.68449 260.83502,99.48622 261.34375,98.46875 C 262.67053,95.815159 264.47188,93.78837 266,92.4375 C 264.00282,94.002749 261.29769,96.467119 259.9375,99.1875 C 259.54497,99.97253 259.13142,100.88715 258.78125,101.875 z M 268.40625,90.6875 C 267.91712,90.932059 267.2021,91.43372 266.375,92.125 C 267.58466,91.200719 268.43607,90.67259 268.40625,90.6875 z"
       id="path11177" />
    <path
       style="opacity:0.75303644;fill:url(#pattern12973);fill-opacity:1;stroke:none;stroke-width:0.86900002;stroke-miterlimit:4;stroke-dasharray:none;stroke-opacity:1;filter:url(#filter12961)"
       d="M 14.46875,2.21875 C 7.3050476,2.21875 1.5625001,8.0237849 1.5625,15.1875 L 1.5625,146.625 C 1.5625,153.7887 7.30505,159.5625 14.46875,159.5625 L 385.15625,159.5625 C 392.31996,159.5625 398.09375,153.78871 398.09375,146.625 L 398.09375,15.1875 C 398.09375,8.0237956 392.31995,2.2187499 385.15625,2.21875 L 14.46875,2.21875 z"
       id="rect12407" />
    <path
       style="fill:#ffffff;fill-opacity:0.70129873;stroke:none;stroke-width:0.86900002;stroke-miterlimit:4;stroke-dasharray:none;stroke-opacity:1;filter:url(#filter12252)"
       d="M 15.3125,45.5625 C 12.052842,45.608909 9.997856,48.283945 7.71875,50.21875 C 5.3282727,52.24809 4.152951,54.963847 1.5625,57.25 L 1.5625,65.59375 C 4.0093599,65.151647 8.2883041,64.687502 11.46875,64.6875 C 16.59566,64.687513 18.67076,62.992256 23.125,60.15625 C 24.006435,59.595051 23.125001,53.141009 23.125,52.03125 C 23.125,48.813725 20.038434,46.410032 16.78125,45.71875 C 16.261941,45.608536 15.778165,45.55587 15.3125,45.5625 z"
       id="rect11766" />
    <g
       id="g12331"
       inkscape:label="Layer 1"
       transform="matrix(2.6048317e-2,0,0,2.6048317e-2,291.20747,68.252797)">
      <path
         sodipodi:nodetypes="cccccccccccsccsccccccccsccccccscccccccccccsssscccccssccccsccccccccccccccsscsccscscccccccccccccsccscccccccsccsscccccscccccccccc"
         id="rect3188"
         d="M 658.375,42.364584 C 653.5955,42.709266 647.95562,43.550978 641.9375,44.833334 C 644.82888,44.833334 649.19431,44.833334 649.4375,44.833334 C 638.95584,45.656094 626.935,48.697615 614.34375,53.677084 C 610.00984,55.393088 605.56415,57.320845 601.125,59.489584 C 596.79111,61.614416 592.49015,63.952434 588.15625,66.489584 C 576.69863,73.188699 566.03572,80.863962 556.71875,88.989584 C 544.01536,100.1033 533.8265,112.05443 527.5625,123.52084 C 527.5625,123.52084 523.34376,131.23958 523.34375,131.23959 C 523.34375,131.23959 530.68751,126.36461 530.6875,126.36459 C 530.6875,126.36459 531.06255,126.14584 531.0625,126.14584 C 531.0625,126.14584 533.15626,124.77084 533.15625,124.77084 C 548.43893,114.83445 563.50051,106.87276 576.625,101.48959 C 592.53934,94.967687 605.63608,92.238105 612.8125,94.520834 C 615.05841,95.240227 616.50316,96.428047 617.1875,98.145837 C 620.81954,107.26278 603.42547,131.83032 569,157.80209 C 561.64817,162.28511 554.19943,167.33336 546.8125,172.92709 C 542.0926,176.48894 537.65629,180.08264 533.375,183.77084 C 530.69046,186.0887 528.05788,188.45619 525.53125,190.80209 C 528.63691,189.3598 531.7145,187.99304 534.75,186.67709 C 572.52681,170.31182 603.69955,164.2346 608.15625,173.27084 C 609.0862,175.14651 608.7436,177.52775 607.375,180.33334 C 601.12858,193.2315 572.29867,214.70779 534.75,233.36459 C 534.45172,233.52251 534.14201,233.66173 533.84375,233.80209 C 530.9311,235.18824 528.04748,236.47625 525.1875,237.73959 C 513.29123,242.96833 501.75362,247.2238 490.875,250.36459 C 488.48873,251.04889 486.15984,251.69179 483.84375,252.27084 C 449.78672,260.83335 422.90599,258.06403 412.0625,242.11459 C 411.06236,240.62317 410.21941,239.04517 409.5,237.39584 C 399.41098,213.41906 421.61956,172.51721 463.625,133.02084 C 476.67931,120.75085 491.64535,108.58592 508.15625,97.145837 C 509.20902,96.415917 510.24222,95.681237 511.3125,94.958337 C 541.07073,74.74344 571.18954,59.892558 598,51.145834 C 569.94374,58.248468 538.30342,72.225048 506.5625,92.208334 C 497.94735,97.623077 489.32618,103.42158 480.78125,109.70834 C 473.86807,114.79672 467.26177,120.03089 460.875,125.33334 C 432.3801,149.00832 409.37924,174.52282 393.5,198.86459 C 378.5507,221.7693 369.90856,243.63247 369.03125,262.02084 C 368.71543,268.61818 369.43287,274.81617 371.1875,280.39584 C 371.85426,282.15045 372.48568,283.89509 373.1875,285.61459 C 374.29291,287.94823 375.56725,290.16912 377.09375,292.23959 C 385.32288,303.434 399.1315,309.58811 416.625,311.11459 C 419.52973,311.11459 434.29014,311.11461 434.40625,311.11459 C 434.42692,311.11293 434.44806,311.11628 434.46875,311.11459 C 440.38392,310.6389 446.60247,309.78441 453.0625,308.52084 C 464.42409,306.29932 476.52341,302.86561 489.125,298.27084 C 498.67739,294.78778 508.52316,290.66109 518.5,285.86459 L 518.5,285.83334 C 540.24245,275.41074 562.72372,261.96999 584.8125,245.70834 C 592.08306,240.36043 599.07901,234.85457 605.78125,229.27084 C 611.92185,224.16148 617.75347,219.01224 623.375,213.77084 C 638.9637,198.74799 650.63792,183.53016 657.09375,170.55209 C 660.45518,163.79602 662.40005,157.67324 662.84375,152.67709 C 663.28743,147.68094 662.33492,143.97312 660.21875,141.17709 C 657.63699,137.76033 653.14391,135.64627 646.28125,135.11459 L 634.65625,134.20834 L 644,127.20834 C 660.85942,114.55795 674.09495,100.58383 682.125,87.677084 C 690.15502,74.770345 692.67575,63.247966 689.78125,55.302084 C 687.96054,50.278626 684.11153,46.582883 677.875,44.333334 C 675.16181,43.357365 672.0231,42.679338 668.5,42.364584 C 668.25633,42.364584 658.97294,42.364584 658.375,42.364584 z M 363.28125,45.239584 C 350.38484,76.919079 344.095,120.5565 346.9375,168.70834 C 347.32352,175.33727 347.88807,182.04824 348.625,188.83334 C 351.22183,212.5136 355.81773,234.85098 361.90625,255.23959 C 364.02932,237.0969 372.4384,216.22236 386.84375,194.14584 C 387.7386,192.75619 388.70878,191.38277 389.65625,189.98959 C 388.04202,185.3118 386.46403,180.53526 384.9375,175.70834 C 382.48103,167.89153 380.24038,160.17732 378.1875,152.58334 C 366.64215,109.90591 361.56176,71.483285 363.28125,45.239584 z M 75.78125,79.395834 C 70.85244,79.512241 66.6041,80.512376 62.96875,82.333334 C 62.828389,82.405269 62.67162,82.445398 62.53125,82.520834 C 58.548293,84.619346 56.236927,87.31242 55.5,90.614584 C 55.5,90.614584 26.937511,219.73957 26.9375,219.73959 C 26.200556,223.04527 27.370791,225.71411 30.40625,227.80209 C 33.45927,229.89008 37.73665,230.92711 43.28125,230.92709 C 43.28125,230.92709 108.09375,230.92711 108.09375,230.92709 C 113.63833,230.92709 118.37834,229.89009 122.34375,227.80209 C 125.20377,226.29312 127.26191,224.47397 128.4375,222.33334 C 128.89371,221.50868 129.21325,220.659 129.40625,219.73959 C 129.40625,219.73959 143.68751,155.17707 143.6875,155.17709 C 143.6875,155.17709 93.937487,155.17707 93.937497,155.17709 C 93.937497,155.17709 91.374997,166.83332 91.374997,166.83334 C 91.374997,166.83334 118.21874,166.83332 118.21875,166.83334 C 118.21875,166.83334 106.78125,218.61462 106.78125,218.61459 C 106.78125,218.61459 106.71875,218.83337 106.71875,218.83334 C 106.71875,218.83334 49.531251,218.83337 49.53125,218.83334 C 49.53125,218.83334 57.000024,184.98958 57,184.98959 C 57,184.98959 77.65623,91.552082 77.65625,91.552084 C 77.65625,91.552084 134.90623,91.552082 134.90625,91.552084 C 134.90625,91.552084 127.37501,125.55212 127.375,125.55209 C 127.375,125.55209 150.25,125.55212 150.25,125.55209 C 150.25,125.55209 158.00002,90.614604 158,90.614584 C 158.71941,87.31241 157.56672,84.619363 154.53125,82.520834 C 151.47823,80.434598 147.20084,79.395812 141.65625,79.395834 C 141.65625,79.395834 76.78125,79.395812 76.78125,79.395834 C 76.4468,79.395834 76.10984,79.388074 75.78125,79.395834 z M 177.4375,79.395834 C 177.4375,79.395834 145.59374,223.27086 145.59375,223.27084 C 145.59375,223.27084 143.90625,230.92711 143.90625,230.92709 C 143.90625,230.92709 166.28125,230.92711 166.28125,230.92709 C 166.28125,230.92709 168.125,222.4271 168.125,222.42709 C 168.125,222.42709 179.59375,170.73959 179.59375,170.73959 C 179.59375,170.73959 238.90622,170.73959 238.90625,170.73959 C 244.39818,170.73959 249.12449,169.66112 253.125,167.55209 C 257.12551,165.45006 259.46814,162.77069 260.1875,159.48959 C 260.1875,159.48959 275.43753,90.614604 275.4375,90.614584 C 276.17445,87.31241 275.0081,84.619363 271.9375,82.520834 C 268.88448,80.434598 264.56815,79.395812 259.09375,79.395834 C 259.09375,79.395834 177.43748,79.395812 177.4375,79.395834 z M 290.25,79.395834 C 290.25,79.395834 263.03126,202.20835 263.03125,202.20834 C 263.03125,202.20834 256.68751,230.92711 256.6875,230.92709 C 256.6875,230.92709 337.18748,230.92711 337.1875,230.92709 C 336.48565,226.94411 335.81148,222.9374 335.25,218.83334 C 335.25,218.83334 281.74999,218.83337 281.75,218.83334 C 281.75,218.83334 287.28126,193.83336 287.28125,193.83334 C 287.28125,193.83334 312.62502,79.395812 312.625,79.395834 C 312.625,79.395834 290.24998,79.395812 290.25,79.395834 z M 197.125,91.552084 C 197.125,91.552084 252.84378,91.552082 252.84375,91.552084 C 252.84375,91.552084 238.03124,158.55207 238.03125,158.55209 C 238.03125,158.55209 182.28126,158.55207 182.28125,158.55209 C 182.28125,158.55209 197.12502,91.552082 197.125,91.552084 z"
         style="fill:#bd0000;fill-opacity:1" />
      <path
         d="M 357.03822,219.78767 C 357.03822,219.78767 357.02067,219.78767 357.02067,219.78767 C 355.37134,219.78767 353.91501,220.3316 352.54641,221.43701 C 351.52874,222.24413 350.82689,223.33199 350.26541,224.54267 C 350.26541,224.54267 350.3356,224.54267 350.3356,224.54267 C 350.89708,223.33199 351.59892,222.24413 352.59906,221.43701 C 353.96765,220.3316 355.42397,219.80521 357.03822,219.78767 z"
         id="path2577"
         style="fill:#bd0000;fill-opacity:1;fill-rule:evenodd;stroke:none;stroke-width:1pt;stroke-linecap:butt;stroke-linejoin:miter" />
      <path
         d="M 357.0908,219.78767 C 357.07325,219.78767 357.05571,219.78767 357.03816,219.78767 C 358.74014,219.80521 359.86309,220.38424 360.61757,221.63001 C 360.95096,222.1564 361.12641,222.94597 361.12641,223.94611 C 361.12641,224.12156 361.09132,224.34967 361.07377,224.54267 C 361.07377,224.54267 361.14396,224.54267 361.14396,224.54267 C 361.14396,224.34967 361.17905,224.12156 361.17905,223.94611 C 361.17905,222.94597 361.02113,222.1564 360.68776,221.63001 C 359.93328,220.36669 358.79277,219.78767 357.0908,219.78767 z"
         id="path2583"
         style="fill:#bd0000;fill-opacity:1;fill-rule:evenodd;stroke:none;stroke-width:1pt;stroke-linecap:butt;stroke-linejoin:miter" />
      <g
         id="g2587"
         style="fill:#bd0000;fill-opacity:1;fill-rule:evenodd;stroke:none;stroke-width:1pt;stroke-linecap:butt;stroke-linejoin:miter"
         transform="matrix(1.7546131,0,0,1.7546131,2.1333996e-8,301.62452)" />
      <g
         id="g2591"
         style="fill:#bd0000;fill-opacity:1;fill-rule:evenodd;stroke:none;stroke-width:1pt;stroke-linecap:butt;stroke-linejoin:miter"
         transform="matrix(1.7546131,0,0,1.7546131,45.532198,319.17063)" />
      <g
         id="g2595"
         style="fill:#bd0000;fill-opacity:1;fill-rule:evenodd;stroke:none;stroke-width:1pt;stroke-linecap:butt;stroke-linejoin:miter"
         transform="matrix(1.7546131,0,0,1.7546131,81.729938,319.17063)" />
      <g
         id="g2599"
         style="fill:#bd0000;fill-opacity:1;fill-rule:evenodd;stroke:none;stroke-width:1pt;stroke-linecap:butt;stroke-linejoin:miter"
         transform="matrix(1.7546131,0,0,1.7546131,128.26229,319.17063)" />
      <g
         id="g2603"
         style="fill:#bd0000;fill-opacity:1;fill-rule:evenodd;stroke:none;stroke-width:1pt;stroke-linecap:butt;stroke-linejoin:miter"
         transform="matrix(1.7546131,0,0,1.7546131,191.27042,319.17063)" />
      <g
         id="g2607"
         style="fill:#bd0000;fill-opacity:1;fill-rule:evenodd;stroke:none;stroke-width:1pt;stroke-linecap:butt;stroke-linejoin:miter"
         transform="matrix(1.7546131,0,0,1.7546131,239.7504,319.17063)" />
      <g
         id="g2611"
         style="fill:#bd0000;fill-opacity:1;fill-rule:evenodd;stroke:none;stroke-width:1pt;stroke-linecap:butt;stroke-linejoin:miter"
         transform="matrix(1.7546131,0,0,1.7546131,296.68754,299.86993)" />
      <g
         id="g2615"
         style="fill:#bd0000;fill-opacity:1;fill-rule:evenodd;stroke:none;stroke-width:1pt;stroke-linecap:butt;stroke-linejoin:miter"
         transform="matrix(1.7546131,0,0,1.7546131,321.76093,320.38131)" />
      <g
         id="g2619"
         style="fill:#bd0000;fill-opacity:1;fill-rule:evenodd;stroke:none;stroke-width:1pt;stroke-linecap:butt;stroke-linejoin:miter"
         transform="matrix(1.7546131,0,0,1.7546131,391.17345,301.62452)" />
      <g
         id="g2623"
         style="fill:#bd0000;fill-opacity:1;fill-rule:evenodd;stroke:none;stroke-width:1pt;stroke-linecap:butt;stroke-linejoin:miter"
         transform="matrix(1.7546131,0,0,1.7546131,436.70564,319.17063)" />
      <g
         id="g2627"
         style="fill:#bd0000;fill-opacity:1;fill-rule:evenodd;stroke:none;stroke-width:1pt;stroke-linecap:butt;stroke-linejoin:miter"
         transform="matrix(1.7546131,0,0,1.7546131,472.90338,319.17063)" />
      <g
         id="g2631"
         style="fill:#bd0000;fill-opacity:1;fill-rule:evenodd;stroke:none;stroke-width:1pt;stroke-linecap:butt;stroke-linejoin:miter"
         transform="matrix(1.7546131,0,0,1.7546131,519.43563,319.17063)" />
      <g
         id="g2635"
         style="fill:#bd0000;fill-opacity:1;fill-rule:evenodd;stroke:none;stroke-width:1pt;stroke-linecap:butt;stroke-linejoin:miter"
         transform="matrix(1.7546131,0,0,1.7546131,565.72237,299.86993)" />
      <g
         id="g2639"
         style="fill:#bd0000;fill-opacity:1;fill-rule:evenodd;stroke:none;stroke-width:1pt;stroke-linecap:butt;stroke-linejoin:miter"
         transform="matrix(1.7546131,0,0,1.7546131,617.85188,319.17063)" />
      <g
         id="g2643"
         style="fill:#bd0000;fill-opacity:1;fill-rule:evenodd;stroke:none;stroke-width:1pt;stroke-linecap:butt;stroke-linejoin:miter"
         transform="matrix(1.7546131,0,0,1.7546131,667.96369,319.17063)" />
    </g>
    <flowRoot
       xml:space="preserve"
       id="flowRoot12351"
       style="font-style:normal;font-weight:normal;line-height:0.01%;font-family:'Bitstream Vera Sans';fill:#000000;fill-opacity:1;stroke:none;stroke-width:1px;stroke-linecap:butt;stroke-linejoin:miter;stroke-opacity:1"
       transform="matrix(0.4833502,0,0,0.4833502,106.95081,35.954332)"><flowRegion
         id="flowRegion12353"><rect
           id="rect12355"
           width="151"
           height="15.75"
           x="422.5"
           y="67.75" /></flowRegion><flowPara
         id="flowPara12357"
         style="font-size:11px;line-height:1.25">2009, The Community</flowPara></flowRoot>    <flowRoot
       xml:space="preserve"
       id="flowRoot4708"
       style="font-style:normal;font-weight:normal;line-height:0.01%;font-family:'Bitstream Vera Sans';fill:#000000;fill-opacity:1;stroke:none;stroke-width:1px;stroke-linecap:butt;stroke-linejoin:miter;stroke-opacity:1"
       transform="matrix(0.9071472,0,0,0.980452,27.06266,12.061)"><flowRegion
         id="flowRegion4710"><rect
           id="rect4712"
           width="118"
           height="24"
           x="291.5"
           y="30"
           style="font-size:9px" /></flowRegion><flowPara
         id="flowPara4716"
         style="font-size:8px;line-height:1.25">Certificate of Authenticity</flowPara></flowRoot>    <flowRoot
       transform="matrix(0.980452,0,0,0.980452,5.33201,2.061)"
       style="font-style:normal;font-weight:normal;line-height:0.01%;font-family:'Bitstream Vera Sans';fill:#000000;fill-opacity:1;stroke:none;stroke-width:1px;stroke-linecap:butt;stroke-linejoin:miter;stroke-opacity:1"
       id="flowRoot4698"
       xml:space="preserve"><flowRegion
         id="flowRegion4700"><rect
           style="font-size:9px"
           y="30"
           x="291.5"
           height="24"
           width="118"
           id="rect4702" /></flowRegion><flowPara
         style="font-size:8px;line-height:1.25"
         id="flowPara4706">Proof of license</flowPara></flowRoot>    <flowRoot
       transform="translate(0.5,-2)"
       style="font-style:normal;font-weight:normal;line-height:0.01%;font-family:'Bitstream Vera Sans';fill:#000000;fill-opacity:1;stroke:none;stroke-width:1px;stroke-linecap:butt;stroke-linejoin:miter;stroke-opacity:1"
       id="flowRoot4732"
       xml:space="preserve"><flowRegion
         id="flowRegion4734"><rect
           y="17.5"
           x="26"
           height="15"
           width="173"
           id="rect4736" /></flowRegion><flowPara
         style="font-weight:bold;font-size:11px;line-height:1.25;-inkscape-font-specification:'Bitstream Vera Sans Bold'"
         id="flowPara4738">Arch Linux</flowPara></flowRoot>    <flowRoot
       xml:space="preserve"
       id="flowRoot11747"
       style="font-style:normal;font-weight:normal;line-height:0.01%;font-family:'Bitstream Vera Sans';fill:#000000;fill-opacity:1;stroke:none;stroke-width:1px;stroke-linecap:butt;stroke-linejoin:miter;stroke-opacity:1"
       transform="translate(0.5,10.727923)"><flowRegion
         id="flowRegion11749"><rect
           id="rect11751"
           width="178.24265"
           height="24.292892"
           x="26"
           y="17.5" /></flowRegion><flowPara
         id="flowPara11753"
         style="font-weight:bold;font-size:11px;line-height:1.25;-inkscape-font-specification:'Bitstream Vera Sans Bold'">OEM Software</flowPara></flowRoot>    <flowRoot
       transform="matrix(0.7715844,0,0,0.7715844,5.011969,14.020862)"
       style="font-style:normal;font-weight:normal;line-height:0.01%;font-family:'Bitstream Vera Sans';fill:#000000;fill-opacity:1;stroke:none;stroke-width:1px;stroke-linecap:butt;stroke-linejoin:miter;stroke-opacity:1"
       id="flowRoot9167"
       xml:space="preserve"><flowRegion
         id="flowRegion9169"><rect
           y="66.247688"
           x="27.577164"
           height="13.435029"
           width="127.27922"
           id="rect9171" /></flowRegion><flowPara
         style="font-weight:bold;font-size:11px;line-height:1.25;-inkscape-font-specification:'Bitstream Vera Sans Bold';text-align:start;text-anchor:start"
         id="flowPara9173">Linux User 000000</flowPara></flowRoot>    <flowRoot
       xml:space="preserve"
       id="flowRoot9537"
       style="font-style:normal;font-weight:normal;line-height:0.01%;font-family:'Bitstream Vera Sans';fill:#000000;fill-opacity:1;stroke:none;stroke-width:1px;stroke-linecap:butt;stroke-linejoin:miter;stroke-opacity:1"
       transform="matrix(0.7715844,0,0,0.7715844,21.982532,30.991425)"><flowRegion
         id="flowRegion9539"><rect
           id="rect9541"
           width="127.27922"
           height="13.435029"
           x="27.577164"
           y="66.247688" /></flowRegion><flowPara
         id="flowPara9543"
         style="font-weight:bold;font-size:11px;line-height:1.25;-inkscape-font-specification:'Bitstream Vera Sans Bold';text-align:start;text-anchor:start">GNU User 00000</flowPara></flowRoot>    <flowRoot
       transform="matrix(0,-0.635225,0.635225,0,133.30823,219.87318)"
       style="font-style:normal;font-weight:normal;line-height:0.01%;font-family:'Bitstream Vera Sans';text-align:start;text-anchor:start;fill:#000000;fill-opacity:1;stroke:none;stroke-width:1px;stroke-linecap:butt;stroke-linejoin:miter;stroke-opacity:1"
       id="flowRoot4659"
       xml:space="preserve"><flowRegion
         id="flowRegion4661"><rect
           style="text-align:start;text-anchor:start"
           y="55.5"
           x="130"
           height="29"
           width="145.5"
           id="rect4663" /></flowRegion><flowPara
         style="font-weight:bold;font-size:11px;line-height:1.25;-inkscape-font-specification:'Bitstream Vera Sans Bold';text-anchor:middle;text-align:center"
         id="flowPara4665">Label not to be sold separately</flowPara></flowRoot>    <flowRoot
       xml:space="preserve"
       id="flowRoot9793"
       style="font-style:normal;font-weight:normal;line-height:0.01%;font-family:'Bitstream Vera Sans';fill:#000000;fill-opacity:1;stroke:none;stroke-width:1px;stroke-linecap:butt;stroke-linejoin:miter;stroke-opacity:1"
       transform="matrix(0.5018273,0,0,0.5018273,21.027631,69.495902)"><flowRegion
         id="flowRegion9795"><rect
           id="rect9797"
           width="262.15982"
           height="29.698484"
           x="46.580658"
           y="141.02423" /></flowRegion><flowPara
         id="flowPara9799"
         style="font-size:11px;line-height:1.25">www.github.com/gnu-linux-activation-technologies/howtotell/wiki</flowPara></flowRoot>    <flowRoot
       xml:space="preserve"
       id="flowRoot13027"
       style="font-style:normal;font-weight:normal;line-height:0.01%;font-family:'Bitstream Vera Sans';fill:#000000;fill-opacity:1;stroke:none;stroke-width:1px;stroke-linecap:butt;stroke-linejoin:miter;stroke-opacity:1"
       transform="translate(-1,-1)"><flowRegion
         id="flowRegion13029"><rect
           id="rect13031"
           width="138.75"
           height="26.75"
           x="20"
           y="114.5"
           style="font-size:9px" /></flowRegion><flowPara
         style="font-size:9px;line-height:1.25"
         id="flowPara13035">Product Key: AAAAA - BBBBB -</flowPara></flowRoot>    <flowRoot
       style="font-style:normal;font-weight:normal;line-height:0.01%;font-family:'Bitstream Vera Sans';fill:#000000;fill-opacity:1;stroke:none;stroke-width:1px;stroke-linecap:butt;stroke-linejoin:miter;stroke-opacity:1"
       id="flowRoot13037"
       xml:space="preserve"
       transform="translate(-1,10)"><flowRegion
         id="flowRegion13039"><rect
           style="font-size:9px"
           y="114.5"
           x="20"
           height="26.75"
           width="138.75"
           id="rect13041" /></flowRegion><flowPara
         id="flowPara13045"
         style="font-size:9px;line-height:1.25">CCCCC - DDDDD - EEEEE</flowPara></flowRoot>    <flowRoot
       xml:space="preserve"
       id="flowRoot3968"
       style="font-style:normal;font-weight:normal;line-height:0.01%;font-family:'Bitstream Vera Sans';fill:#000000;fill-opacity:1;stroke:none;stroke-width:1px;stroke-linecap:butt;stroke-linejoin:miter;stroke-opacity:1"
       transform="translate(67.023437,424.07492)"><flowRegion
         id="flowRegion3970"><rect
           id="rect3972"
           width="133.64319"
           height="11.313708"
           x="46.669048"
           y="141.37779" /></flowRegion><flowPara
         id="flowPara3974"
         style="font-size:11px;line-height:1.25">https://www.github.com/gnu-linux-activation-technologies/howtotell/wiki</flowPara></flowRoot>    <path
       style="fill:#ffffff;fill-opacity:1"
       d="M -24.976563,-31.92508 L -24.976563,204.57492 L 438.52344,204.57492 L 438.52344,-31.92508 L -24.976563,-31.92508 z M 14.023437,2.57492 L 385.27344,2.57492 C 392.47544,2.57492 398.27344,8.37292 398.27344,15.57492 L 398.27344,146.82492 C 398.27344,154.02692 392.47544,159.82492 385.27344,159.82492 L 14.023437,159.82492 C 6.821437,159.82492 1.023437,154.02692 1.023437,146.82492 L 1.023437,15.57492 C 1.023437,8.37292 6.821437,2.57492 14.023437,2.57492 z"
       id="rect3553" />
    <g
       id="g4133"
       transform="matrix(0.1222352,0,0,0.0905556,291.81232,51.73642)">
      <path
         id="path4119"
         d="m 179.53,51.949 c -8.07,-0.013 -14.77,1.642 -17.36,2.545 l -2.67,14.401 c 0,0.053 13.28,-3.542 19.13,-3.33 9.68,0.348 10.58,3.702 10.41,8.229 0.16,0.265 -2.5,-4.091 -10.88,-4.237 -10.58,-0.182 -25.49,3.743 -25.47,19.701 -0.29,17.952 13.4,23.232 22.73,23.322 8.38,-0.15 12.32,-3.17 14.47,-4.79 2.83,-2.96 6.07,-5.93 9.15,-9.502 -2.92,5.312 -5.45,8.982 -8.09,11.782 v 2.38 l 12.75,-2.15 0.09,-34.641 C 203.66,70.756 206.6,51.994 179.53,51.948 Z M 177.7,82.11 c 5.29,0.072 11.35,2.676 11.35,8.944 0.03,5.7 -7.14,8.765 -11.8,8.717 -4.66,-0.049 -10.85,-3.666 -10.88,-9.223 0.09,-4.968 5.84,-8.566 11.33,-8.438 z m 34.49,-26.959 -0.09,57.369 14.85,-2.86 0.02,-32.527 c 0.01,-4.843 6.93,-10.503 15.6,-10.412 1.85,-3.333 5.31,-11.851 6.15,-13.789 -19.39,-0.046 -19.63,5.574 -23.01,8.338 -0.03,-5.274 -0.01,-8.439 -0.01,-8.439 l -13.51,2.322 z m 83.55,7.532 c -0.14,-0.068 -7.74,-8.89 -23.02,-8.959 -14.31,-0.238 -30.36,5.31 -30.62,29.308 0.13,21.098 15.42,29.348 30.7,29.508 16.36,0.17 22.86,-10.23 23.25,-10.49 -1.95,-1.69 -9.26,-8.931 -9.26,-8.931 0,0 -4.56,6.501 -13.42,6.583 -8.86,0.084 -16.56,-6.847 -16.67,-16.519 -0.11,-9.671 7.08,-14.911 16.74,-15.335 8.36,-0.001 13.18,5.397 13.18,5.397 z m 18.72,-27.611 -14.02,3.295 0.1,74.723 13.81,-2.49 0.16,-35.166 c 0.03,-3.687 5.33,-9.349 14.19,-9.17 8.47,0.088 10.36,5.644 10.34,6.346 l 0.24,40.71 13.62,-2.41 0.05,-43.164 c 0.09,-4.154 -9.1,-12.927 -23.87,-12.989 -7.01,0.012 -10.9,1.6 -12.88,2.772 -3.38,2.614 -7.25,5.119 -11.05,8.316 3.51,-4.514 6.46,-7.634 9.34,-9.955 l -0.03,-20.816 z"
         inkscape:connector-curvature="0"
         style="fill:#4d4d4d" />
      <path
         id="path4121"
         d="m 364.76,37.017 6.38,-1.583 -0.77,75.336 -6.48,1.09 z m 16.97,22.482 5.61,-2.467 -0.72,54.018 -5.4,1.11 z m -1.05,-19.478 4.55,-3.647 3.67,4.129 -4.55,3.744 z m 17.12,18.495 6.38,-1.29 -0.13,11.293 c -0.01,0.485 3.67,-12.616 20.51,-12.324 16.36,0.09 18.86,12.675 18.73,15.496 l -0.37,39.709 -5.59,1.2 0.53,-39.219 c 0.08,-1.146 -2.4,-10.832 -13.96,-10.868 -11.55,-0.034 -19.68,8.342 -19.74,13.693 l -0.4,34.554 -6.48,1.68 0.52,-53.925 z m 100.63,53.164 -6.38,1.29 0.13,-11.29 c 0.01,-0.48 -3.67,12.62 -20.51,12.33 -16.36,-0.1 -18.85,-12.68 -18.73,-15.502 l 0.37,-39.711 6.78,-1.356 -0.46,39.224 c -0.01,1.072 1.14,10.985 12.7,11.025 11.55,0.03 19.75,-6.92 19.95,-17.385 l 0.36,-30.948 6.32,-1.596 z m 13.23,-53.61 -4.51,3.47 16.78,22.245 -18.6,25.705 4.68,3.49 17.49,-23.872 17.35,24.432 4.43,-3.47 -18.6,-26.122 15.43,-21.126 -4.59,-3.911 -14.07,19.549 z M 83.81,0.625 C 76.413,18.759 71.952,30.622 63.717,48.218 68.766,53.57 74.963,59.802 85.028,66.842 74.208,62.389 66.828,57.918 61.311,53.28 50.772,75.272 34.259,106.6 0.75,166.81 c 26.338,-15.2 46.753,-24.58 65.78,-28.15 -0.817,-3.52 -1.281,-7.32 -1.25,-11.28 l 0.031,-0.85 c 0.418,-16.87 9.195,-29.845 19.593,-28.964 10.398,0.881 18.478,15.284 18.058,32.154 -0.07,3.18 -0.43,6.23 -1.06,9.06 18.82,3.68 39.02,13.03 65,28.03 -5.12,-9.43 -9.7,-17.93 -14.06,-26.03 -6.88,-5.33 -14.05,-12.27 -28.69,-19.78 10.06,2.62 17.26,5.63 22.88,9 C 102.632,47.332 99.039,36.349 83.809,0.63 L 83.81,0.62481 Z m 473.68,107.75 v -4.66 h -1.74 v -0.62 h 4.19 v 0.62 h -1.75 v 4.66 z m 3.18,0 v -5.28 h 1.05 l 1.25,3.74 c 0.12,0.35 0.2,0.61 0.25,0.78 0.06,-0.19 0.16,-0.47 0.29,-0.84 l 1.26,-3.68 h 0.94 v 5.28 h -0.67 v -4.42 l -1.54,4.42 h -0.63 l -1.53,-4.5 v 4.5 z m -392.94,43.61 v -4.55 h -1.7 v -0.61 h 4.09 v 0.61 h -1.71 v 4.55 z m 3.1,0 v -5.16 h 1.03 l 1.22,3.66 c 0.12,0.34 0.2,0.59 0.25,0.76 0.06,-0.19 0.15,-0.46 0.28,-0.83 l 1.23,-3.59 h 0.92 v 5.16 h -0.66 v -4.32 l -1.5,4.32 h -0.61 l -1.5,-4.39 v 4.39 z"
         inkscape:connector-curvature="0"
         style="fill:#1793d1" />
    </g>
    <flowRoot
       xml:space="preserve"
       id="flowRoot13019"
       style="font-style:normal;font-weight:normal;line-height:0.01%;font-family:'Bitstream Vera Sans';fill:#000000;fill-opacity:1;stroke:none;stroke-width:1px;stroke-linecap:butt;stroke-linejoin:miter;stroke-opacity:1"
       transform="matrix(0.6007706,0,0,0.6007706,118.1918,58.083704)"><flowRegion
         id="flowRegion13021"><rect
           id="rect13023"
           width="78.748909"
           height="13.71674"
           x="293.75"
           y="138.5" /></flowRegion><flowPara
         id="flowPara13025"
         style="font-size:11px;line-height:1.25">Genuine copy</flowPara></flowRoot>    <g
       transform="matrix(0.71835484,0,0,0.71835,25.388,45.749)"
       style="fill:#000000"
       id="barcode1">
      <rect
         height="20"
         width="1"
         id="barcode1_bar1"
         y="0"
         x="0" />
      <rect
         height="20"
         width="1"
         id="barcode1_bar3"
         y="0"
         x="3" />
      <rect
         height="20"
         width="2"
         id="barcode1_bar5"
         y="0"
         x="5" />
      <rect
         height="20"
         width="2"
         id="barcode1_bar7"
         y="0"
         x="8" />
      <rect
         height="20"
         width="1"
         id="barcode1_bar9"
         y="0"
         x="11" />
      <rect
         height="20"
         width="1"
         id="barcode1_bar11"
         y="0"
         x="13" />
      <rect
         height="20"
         width="2"
         id="barcode1_bar13"
         y="0"
         x="15" />
      <rect
         height="20"
         width="1"
         id="barcode1_bar15"
         y="0"
         x="18" />
      <rect
         height="20"
         width="1"
         id="barcode1_bar17"
         y="0"
         x="20" />
      <rect
         height="20"
         width="2"
         id="barcode1_bar19"
         y="0"
         x="23" />
      <rect
         height="20"
         width="1"
         id="barcode1_bar21"
         y="0"
         x="26" />
      <rect
         height="20"
         width="2"
         id="barcode1_bar23"
         y="0"
         x="29" />
      <rect
         height="20"
         width="1"
         id="barcode1_bar25"
         y="0"
         x="32" />
      <rect
         height="20"
         width="2"
         id="barcode1_bar27"
         y="0"
         x="34" />
      <rect
         height="20"
         width="1"
         id="barcode1_bar29"
         y="0"
         x="37" />
      <rect
         height="20"
         width="2"
         id="barcode1_bar31"
         y="0"
         x="39" />
      <rect
         height="20"
         width="1"
         id="barcode1_bar33"
         y="0"
         x="43" />
      <rect
         height="20"
         width="1"
         id="barcode1_bar35"
         y="0"
         x="45" />
      <rect
         height="20"
         width="1"
         id="barcode1_bar37"
         y="0"
         x="47" />
      <rect
         height="20"
         width="2"
         id="barcode1_bar39"
         y="0"
         x="49" />
      <rect
         height="20"
         width="1"
         id="barcode1_bar41"
         y="0"
         x="52" />
      <rect
         height="20"
         width="2"
         id="barcode1_bar43"
         y="0"
         x="55" />
      <rect
         height="20"
         width="1"
         id="barcode1_bar45"
         y="0"
         x="58" />
      <rect
         height="20"
         width="2"
         id="barcode1_bar47"
         y="0"
         x="60" />
      <rect
         height="20"
         width="1"
         id="barcode1_bar49"
         y="0"
         x="63" />
      <rect
         height="20"
         width="1"
         id="barcode1_bar51"
         y="0"
         x="65" />
      <rect
         height="20"
         width="1"
         id="barcode1_bar53"
         y="0"
         x="67" />
      <rect
         height="20"
         width="2"
         id="barcode1_bar55"
         y="0"
         x="70" />
      <rect
         height="20"
         width="2"
         id="barcode1_bar57"
         y="0"
         x="73" />
      <rect
         height="20"
         width="1"
         id="barcode1_bar59"
         y="0"
         x="76" />
      <rect
         height="20"
         width="1"
         id="barcode1_bar61"
         y="0"
         x="78" />
      <rect
         height="20"
         width="1"
         id="barcode1_bar63"
         y="0"
         x="80" />
      <rect
         height="20"
         width="2"
         id="barcode1_bar65"
         y="0"
         x="83" />
      <rect
         height="20"
         width="2"
         id="barcode1_bar67"
         y="0"
         x="86" />
      <rect
         height="20"
         width="1"
         id="barcode1_bar69"
         y="0"
         x="89" />
      <rect
         height="20"
         width="1"
         id="barcode1_bar71"
         y="0"
         x="91" />
      <rect
         height="20"
         width="1"
         id="barcode1_bar73"
         y="0"
         x="93" />
      <rect
         height="20"
         width="2"
         id="barcode1_bar75"
         y="0"
         x="96" />
      <rect
         height="20"
         width="2"
         id="barcode1_bar77"
         y="0"
         x="99" />
      <rect
         height="20"
         width="1"
         id="barcode1_bar79"
         y="0"
         x="102" />
      <rect
         height="20"
         width="1"
         id="barcode1_bar81"
         y="0"
         x="104" />
      <rect
         height="20"
         width="1"
         id="barcode1_bar83"
         y="0"
         x="106" />
      <rect
         height="20"
         width="2"
         id="barcode1_bar85"
         y="0"
         x="109" />
      <rect
         height="20"
         width="2"
         id="barcode1_bar87"
         y="0"
         x="112" />
      <rect
         height="20"
         width="1"
         id="barcode1_bar89"
         y="0"
         x="115" />
      <rect
         height="20"
         width="1"
         id="barcode1_bar91"
         y="0"
         x="117" />
      <rect
         height="20"
         width="1"
         id="barcode1_bar93"
         y="0"
         x="119" />
      <rect
         height="20"
         width="2"
         id="barcode1_bar95"
         y="0"
         x="122" />
      <rect
         height="20"
         width="2"
         id="barcode1_bar97"
         y="0"
         x="125" />
      <rect
         height="20"
         width="1"
         id="barcode1_bar99"
         y="0"
         x="128" />
      <rect
         height="20"
         width="1"
         id="barcode1_bar101"
         y="0"
         x="130" />
      <rect
         height="20"
         width="1"
         id="barcode1_bar103"
         y="0"
         x="132" />
      <rect
         height="20"
         width="2"
         id="barcode1_bar105"
         y="0"
         x="135" />
      <rect
         height="20"
         width="2"
         id="barcode1_bar107"
         y="0"
         x="138" />
      <rect
         height="20"
         width="1"
         id="barcode1_bar109"
         y="0"
         x="141" />
      <rect
         height="20"
         width="1"
         id="barcode1_bar111"
         y="0"
         x="143" />
      <rect
         height="20"
         width="1"
         id="barcode1_bar113"
         y="0"
         x="146" />
      <rect
         height="20"
         width="2"
         id="barcode1_bar115"
         y="0"
         x="148" />
      <rect
         height="20"
         width="2"
         id="barcode1_bar117"
         y="0"
         x="151" />
      <rect
         height="20"
         width="1"
         id="barcode1_bar119"
         y="0"
         x="154" />
    </g>
    <g
       transform="matrix(0.92371831,0,0,0.9237,18.958,93.569)"
       style="fill:#000000"
       id="barcode2">
      <rect
         height="20"
         width="1"
         id="barcode2_bar1"
         y="0"
         x="0" />
      <rect
         height="20"
         width="1"
         id="barcode2_bar3"
         y="0"
         x="3" />
      <rect
         height="20"
         width="2"
         id="barcode2_bar5"
         y="0"
         x="5" />
      <rect
         height="20"
         width="2"
         id="barcode2_bar7"
         y="0"
         x="8" />
      <rect
         height="20"
         width="1"
         id="barcode2_bar9"
         y="0"
         x="11" />
      <rect
         height="20"
         width="1"
         id="barcode2_bar11"
         y="0"
         x="13" />
      <rect
         height="20"
         width="1"
         id="barcode2_bar13"
         y="0"
         x="15" />
      <rect
         height="20"
         width="1"
         id="barcode2_bar15"
         y="0"
         x="17" />
      <rect
         height="20"
         width="2"
         id="barcode2_bar17"
         y="0"
         x="20" />
      <rect
         height="20"
         width="2"
         id="barcode2_bar19"
         y="0"
         x="23" />
      <rect
         height="20"
         width="1"
         id="barcode2_bar21"
         y="0"
         x="26" />
      <rect
         height="20"
         width="2"
         id="barcode2_bar23"
         y="0"
         x="29" />
      <rect
         height="20"
         width="1"
         id="barcode2_bar25"
         y="0"
         x="32" />
      <rect
         height="20"
         width="2"
         id="barcode2_bar27"
         y="0"
         x="34" />
      <rect
         height="20"
         width="1"
         id="barcode2_bar29"
         y="0"
         x="37" />
      <rect
         height="20"
         width="2"
         id="barcode2_bar31"
         y="0"
         x="39" />
      <rect
         height="20"
         width="1"
         id="barcode2_bar33"
         y="0"
         x="43" />
      <rect
         height="20"
         width="1"
         id="barcode2_bar35"
         y="0"
         x="45" />
      <rect
         height="20"
         width="1"
         id="barcode2_bar37"
         y="0"
         x="47" />
      <rect
         height="20"
         width="2"
         id="barcode2_bar39"
         y="0"
         x="49" />
      <rect
         height="20"
         width="1"
         id="barcode2_bar41"
         y="0"
         x="52" />
      <rect
         height="20"
         width="2"
         id="barcode2_bar43"
         y="0"
         x="55" />
      <rect
         height="20"
         width="1"
         id="barcode2_bar45"
         y="0"
         x="58" />
      <rect
         height="20"
         width="2"
         id="barcode2_bar47"
         y="0"
         x="60" />
      <rect
         height="20"
         width="1"
         id="barcode2_bar49"
         y="0"
         x="63" />
      <rect
         height="20"
         width="1"
         id="barcode2_bar51"
         y="0"
         x="65" />
      <rect
         height="20"
         width="1"
         id="barcode2_bar53"
         y="0"
         x="67" />
      <rect
         height="20"
         width="2"
         id="barcode2_bar55"
         y="0"
         x="70" />
      <rect
         height="20"
         width="2"
         id="barcode2_bar57"
         y="0"
         x="73" />
      <rect
         height="20"
         width="1"
         id="barcode2_bar59"
         y="0"
         x="76" />
      <rect
         height="20"
         width="1"
         id="barcode2_bar61"
         y="0"
         x="78" />
      <rect
         height="20"
         width="1"
         id="barcode2_bar63"
         y="0"
         x="80" />
      <rect
         height="20"
         width="2"
         id="barcode2_bar65"
         y="0"
         x="83" />
      <rect
         height="20"
         width="2"
         id="barcode2_bar67"
         y="0"
         x="86" />
      <rect
         height="20"
         width="1"
         id="barcode2_bar69"
         y="0"
         x="89" />
      <rect
         height="20"
         width="1"
         id="barcode2_bar71"
         y="0"
         x="91" />
      <rect
         height="20"
         width="1"
         id="barcode2_bar73"
         y="0"
         x="93" />
      <rect
         height="20"
         width="2"
         id="barcode2_bar75"
         y="0"
         x="96" />
      <rect
         height="20"
         width="2"
         id="barcode2_bar77"
         y="0"
         x="99" />
      <rect
         height="20"
         width="1"
         id="barcode2_bar79"
         y="0"
         x="102" />
      <rect
         height="20"
         width="1"
         id="barcode2_bar81"
         y="0"
         x="104" />
      <rect
         height="20"
         width="1"
         id="barcode2_bar83"
         y="0"
         x="106" />
      <rect
         height="20"
         width="2"
         id="barcode2_bar85"
         y="0"
         x="109" />
      <rect
         height="20"
         width="2"
         id="barcode2_bar87"
         y="0"
         x="112" />
      <rect
         height="20"
         width="1"
         id="barcode2_bar89"
         y="0"
         x="115" />
      <rect
         height="20"
         width="1"
         id="barcode2_bar91"
         y="0"
         x="117" />
      <rect
         height="20"
         width="1"
         id="barcode2_bar93"
         y="0"
         x="119" />
      <rect
         height="20"
         width="2"
         id="barcode2_bar95"
         y="0"
         x="122" />
      <rect
         height="20"
         width="2"
         id="barcode2_bar97"
         y="0"
         x="125" />
      <rect
         height="20"
         width="1"
         id="barcode2_bar99"
         y="0"
         x="128" />
      <rect
         height="20"
         width="1"
         id="barcode2_bar101"
         y="0"
         x="130" />
      <rect
         height="20"
         width="1"
         id="barcode2_bar103"
         y="0"
         x="133" />
      <rect
         height="20"
         width="2"
         id="barcode2_bar105"
         y="0"
         x="135" />
      <rect
         height="20"
         width="2"
         id="barcode2_bar107"
         y="0"
         x="138" />
      <rect
         height="20"
         width="1"
         id="barcode2_bar109"
         y="0"
         x="141" />
    </g>
  </g>
</svg>
